<?xml version="1.0" standalone="no"?>
<!DOCTYPE svg PUBLIC "-//W3C//DTD SVG 20010904//EN"
 "http://www.w3.org/TR/2001/REC-SVG-20010904/DTD/svg10.dtd">
<svg version="1.0" xmlns="http://www.w3.org/2000/svg"
 width="512.000000pt" height="512.000000pt" viewBox="0 0 512.000000 512.000000"
 preserveAspectRatio="xMidYMid meet">
<metadata>
Created by potrace 1.11, written by Peter Selinger 2001-2013
</metadata>
<g transform="translate(0.000000,512.000000) scale(0.100000,-0.100000)"
fill="#000000" stroke="none">
<path d="M2285 5108 c-666 -71 -1285 -403 -1705 -918 -25 -30 -51 -61 -58 -68
-37 -40 -189 -282 -239 -382 -100 -198 -174 -392 -208 -548 -3 -12 -7 -30 -9
-39 -8 -35 -35 -179 -41 -213 -27 -182 -28 -562 -1 -710 2 -14 7 -43 10 -65
20 -141 84 -370 152 -540 46 -116 149 -310 230 -433 379 -577 968 -974 1639
-1106 111 -22 127 -24 203 -31 37 -4 85 -8 107 -11 48 -5 292 -4 355 1 56 5
158 16 185 20 11 2 40 7 65 10 88 12 366 85 435 114 11 5 56 23 100 41 197 78
437 221 626 371 90 72 253 227 320 305 215 250 384 540 485 829 27 77 73 235
80 275 3 14 9 41 14 60 5 19 12 55 15 80 3 25 10 72 16 105 5 33 12 120 16
192 l6 133 -1272 0 -1271 0 0 1270 0 1270 -92 -2 c-51 -2 -124 -6 -163 -10z"/>
</g>
</svg>
